{
 "accessors": [
  {
   "componentType": 5126,
   "type": "VEC3",
   "count": 455,
   "max": [
    4.3734283447265625,
    0.04330126941204071,
    5.049324035644531
   ],
   "min": [
    -5.050000190734863,
    -0.04330126941204071,
    -5.049324035644531
   ],
   "bufferView": 0
  },
  {
   "componentType": 5126,
   "type": "VEC3",
   "count": 455,
   "bufferView": 1
  },
  {
   "componentType": 5126,
   "type": "VEC2",
   "count": 455,
   "bufferView": 2
  },
  {
   "componentType": 5123,
   "type": "SCALAR",
   "count": 2304,
   "bufferView": 3
  },
  {
   "componentType": 5126,
   "type": "VEC3",
   "count": 1632,
   "max": [
    3.0880000591278076,
    1.0130000114440918,
    0.10000000149011612
   ],
   "min": [
    0,
    -0.02500000037252903,
    0
   ],
   "bufferView": 4
  },
  {
   "componentType": 5126,
   "type": "VEC3",
   "count": 1632,
   "bufferView": 5
  },
  {
   "componentType": 5126,
   "type": "VEC2",
   "count": 1632,
   "bufferView": 6
  },
  {
   "componentType": 5123,
   "type": "SCALAR",
   "count": 1632,
   "bufferView": 7
  }
 ],
 "asset": {
  "version": "2.0",
  "generator": "clara.io"
 },
 "bufferViews": [
  {
   "buffer": 0,
   "byteOffset": 0,
   "byteLength": 5460,
   "target": 34962,
   "byteStride": 12
  },
  {
   "buffer": 0,
   "byteOffset": 5460,
   "byteLength": 5460,
   "target": 34962,
   "byteStride": 12
  },
  {
   "buffer": 0,
   "byteOffset": 10920,
   "byteLength": 3640,
   "target": 34962,
   "byteStride": 8
  },
  {
   "buffer": 0,
   "byteOffset": 14560,
   "byteLength": 4608,
   "target": 34963
  },
  {
   "buffer": 0,
   "byteOffset": 19168,
   "byteLength": 19584,
   "target": 34962,
   "byteStride": 12
  },
  {
   "buffer": 0,
   "byteOffset": 38752,
   "byteLength": 19584,
   "target": 34962,
   "byteStride": 12
  },
  {
   "buffer": 0,
   "byteOffset": 58336,
   "byteLength": 13056,
   "target": 34962,
   "byteStride": 8
  },
  {
   "buffer": 0,
   "byteOffset": 71392,
   "byteLength": 3264,
   "target": 34963
  }
 ],
 "buffers": [
  {
   "byteLength": 74656,
   "uri": "data:application/octet-stream;base64,"
  }
 ],
 "materials": [
  {
   "name": "Default-Torus"
  },
  {
   "name": "Default-Text"
  }
 ],
 "meshes": [
  {
   "primitives": [
    {
     "indices": 3,
     "material": 0,
     "mode": 4,
     "attributes": {
      "POSITION": 0,
      "NORMAL": 1,
      "TEXCOORD_0": 2
     }
    }
   ]
  },
  {
   "primitives": [
    {
     "indices": 7,
     "material": 1,
     "mode": 4,
     "attributes": {
      "POSITION": 4,
      "NORMAL": 5,
      "TEXCOORD_0": 6
     }
    }
   ]
  }
 ],
 "nodes": [
  {
   "name": "earth-orbit",
   "translation": [
    -0.7835000157356262,
    0,
    -2
   ],
   "children": [
    1,
    2
   ]
  },
  {
   "name": "Torus",
   "translation": [
    0.7835000157356262,
    0,
    2
   ],
   "rotation": [
    0,
    0.7071067811865475,
    0,
    0.7071067811865476
   ],
   "mesh": 0
  },
  {
   "name": "Text",
   "translation": [
    -0.7835000157356262,
    0,
    -2
   ],
   "rotation": [
    -0.7071067811865475,
    0,
    0,
    0.7071067811865476
   ],
   "mesh": 1
  }
 ],
 "scene": 0,
 "scenes": [
  {
   "nodes": [
    0
   ]
  }
 ]
}