{
 "accessors": [
  {
   "componentType": 5126,
   "type": "VEC3",
   "count": 14280,
   "max": [
    6.199999809265137,
    6.199999809265137,
    6.199999809265137
   ],
   "min": [
    -6.199999809265137,
    -6.199999809265137,
    -6.199999809265137
   ],
   "bufferView": 4
  },
  {
   "componentType": 5126,
   "type": "VEC3",
   "count": 14280,
   "bufferView": 5
  },
  {
   "componentType": 5126,
   "type": "VEC2",
   "count": 14280,
   "bufferView": 6
  },
  {
   "componentType": 5123,
   "type": "SCALAR",
   "count": 21240,
   "bufferView": 7
  },
  {
   "componentType": 5126,
   "type": "VEC3",
   "count": 14280,
   "max": [
    6.204999923706055,
    6.204999923706055,
    6.204999923706055
   ],
   "min": [
    -6.204999923706055,
    -6.204999923706055,
    -6.204999923706055
   ],
   "bufferView": 8
  },
  {
   "componentType": 5126,
   "type": "VEC3",
   "count": 14280,
   "bufferView": 9
  },
  {
   "componentType": 5126,
   "type": "VEC2",
   "count": 14280,
   "bufferView": 10
  },
  {
   "componentType": 5123,
   "type": "SCALAR",
   "count": 21240,
   "bufferView": 11
  },
  {
   "componentType": 5126,
   "type": "VEC3",
   "count": 2599,
   "max": [
    1.2000000476837158,
    1.2000000476837158,
    1.197632074356079
   ],
   "min": [
    -1.2000000476837158,
    -1.2000000476837158,
    -1.197632074356079
   ],
   "bufferView": 12
  },
  {
   "componentType": 5126,
   "type": "VEC3",
   "count": 2599,
   "bufferView": 13
  },
  {
   "componentType": 5126,
   "type": "VEC2",
   "count": 2599,
   "bufferView": 14
  },
  {
   "componentType": 5123,
   "type": "SCALAR",
   "count": 14700,
   "bufferView": 15
  }
 ],
 "asset": {
  "version": "2.0",
  "generator": "clara.io"
 },
 "bufferViews": [
  {
   "buffer": 0,
   "byteOffset": 0,
   "byteLength": 178930
  },
  {
   "buffer": 0,
   "byteOffset": 178932,
   "byteLength": 148558
  },
  {
   "buffer": 0,
   "byteOffset": 327492,
   "byteLength": 1271036
  },
  {
   "buffer": 0,
   "byteOffset": 1598528,
   "byteLength": 107677
  },
  {
   "buffer": 0,
   "byteOffset": 1706208,
   "byteLength": 171360,
   "target": 34962,
   "byteStride": 12
  },
  {
   "buffer": 0,
   "byteOffset": 1877568,
   "byteLength": 171360,
   "target": 34962,
   "byteStride": 12
  },
  {
   "buffer": 0,
   "byteOffset": 2048928,
   "byteLength": 114240,
   "target": 34962,
   "byteStride": 8
  },
  {
   "buffer": 0,
   "byteOffset": 2163168,
   "byteLength": 42480,
   "target": 34963
  },
  {
   "buffer": 0,
   "byteOffset": 2205648,
   "byteLength": 171360,
   "target": 34962,
   "byteStride": 12
  },
  {
   "buffer": 0,
   "byteOffset": 2377008,
   "byteLength": 171360,
   "target": 34962,
   "byteStride": 12
  },
  {
   "buffer": 0,
   "byteOffset": 2548368,
   "byteLength": 114240,
   "target": 34962,
   "byteStride": 8
  },
  {
   "buffer": 0,
   "byteOffset": 2662608,
   "byteLength": 42480,
   "target": 34963
  },
  {
   "buffer": 0,
   "byteOffset": 2705088,
   "byteLength": 31188,
   "target": 34962,
   "byteStride": 12
  },
  {
   "buffer": 0,
   "byteOffset": 2736276,
   "byteLength": 31188,
   "target": 34962,
   "byteStride": 12
  },
  {
   "buffer": 0,
   "byteOffset": 2767464,
   "byteLength": 20792,
   "target": 34962,
   "byteStride": 8
  },
  {
   "buffer": 0,
   "byteOffset": 2788256,
   "byteLength": 29400,
   "target": 34963
  }
 ],
 "buffers": [
  {
   "byteLength": 2817656,
   "uri": "data:application/octet-stream;base64,"
  }
 ],
 "images": [
  {
   "name": "4_moon_global_1k_1.jpg",
   "bufferView": 0,
   "mimeType": "image/jpeg"
  },
  {
   "name": "Earth-hires.jpg",
   "bufferView": 1,
   "mimeType": "image/jpeg"
  },
  {
   "name": "BASE_OPACITY_100.png",
   "bufferView": 2,
   "mimeType": "image/png"
  },
  {
   "name": "AO_ROUGH_METAL_101.jpg",
   "bufferView": 3,
   "mimeType": "image/jpeg"
  }
 ],
 "materials": [
  {
   "name": "Earth",
   "pbrMetallicRoughness": {
    "baseColorFactor": [
     0.807843137254902,
     0.807843137254902,
     0.807843137254902,
     1
    ],
    "baseColorTexture": {
     "index": 1,
     "texCoord": 0
    },
    "roughnessFactor": 0.075,
    "metallicFactor": 0
   },
   "emissiveTexture": {
    "index": 1
   },
   "doubleSided": true
  },
  {
   "name": "clouds",
   "pbrMetallicRoughness": {
    "baseColorTexture": {
     "index": 2,
     "texCoord": 0
    },
    "roughnessFactor": 0.74,
    "metallicFactor": 0.01
   },
   "emissiveFactor": [
    0.09019607843137255,
    0.20392156862745098,
    0.27058823529411763
   ],
   "alphaMode": "BLEND",
   "doubleSided": true
  },
  {
   "name": "moon",
   "pbrMetallicRoughness": {
    "baseColorFactor": [
     0.6901960784313725,
     0.6901960784313725,
     0.6901960784313725,
     1
    ],
    "baseColorTexture": {
     "index": 0,
     "texCoord": 0
    },
    "roughnessFactor": 0,
    "metallicFactor": 0,
    "metallicRoughnessTexture": {
     "index": 3
    }
   },
   "doubleSided": true
  }
 ],
 "meshes": [
  {
   "primitives": [
    {
     "indices": 3,
     "material": 0,
     "mode": 4,
     "attributes": {
      "POSITION": 0,
      "NORMAL": 1,
      "TEXCOORD_0": 2
     }
    }
   ]
  },
  {
   "primitives": [
    {
     "indices": 7,
     "material": 1,
     "mode": 4,
     "attributes": {
      "POSITION": 4,
      "NORMAL": 5,
      "TEXCOORD_0": 6
     }
    }
   ]
  },
  {
   "primitives": [
    {
     "indices": 11,
     "material": 2,
     "mode": 4,
     "attributes": {
      "POSITION": 8,
      "NORMAL": 9,
      "TEXCOORD_0": 10
     }
    }
   ]
  }
 ],
 "nodes": [
  {
   "name": "earth",
   "translation": [
    4.704999923706055,
    0,
    -14.793700218200684
   ],
   "rotation": [
    -0.25236298626070586,
    0.13349065632302445,
    0.9570112654487292,
    -0.051211314692904415
   ],
   "mesh": 0,
   "children": [
    1
   ]
  },
  {
   "name": "clouds",
   "rotation": [
    0.006179246704119667,
    -0.0007242407282277818,
    0.0025885255063082834,
    0.9999772978232268
   ],
   "scale": [
    1.0000000256537867,
    1.0000001217362329,
    0.9999999887974457
   ],
   "mesh": 1
  },
  {
   "name": "moon",
   "translation": [
    18.22450065612793,
    2.2119998931884766,
    -51.14289855957031
   ],
   "rotation": [
    -0.414310938666332,
    0.21905545407565163,
    0.0545085956101041,
    0.8816972034099132
   ],
   "mesh": 2
  }
 ],
 "samplers": [
  {
   "magFilter": 9729,
   "minFilter": 9987,
   "wrapS": 10497,
   "wrapT": 10497
  }
 ],
 "scene": 0,
 "scenes": [
  {
   "nodes": [
    0,
    2
   ]
  }
 ],
 "textures": [
  {
   "sampler": 0,
   "source": 0
  },
  {
   "sampler": 0,
   "source": 1
  },
  {
   "sampler": 0,
   "source": 2
  },
  {
   "sampler": 0,
   "source": 3
  }
 ]
}